<svg width="24" height="24" viewBox="0 0 24 24" fill="none" xmlns="http://www.w3.org/2000/svg">
<path d="M3.99996 6V20.6667C3.99376 20.9232 4.03816 21.1784 4.13064 21.4178C4.22311 21.6572 4.36185 21.876 4.53891 22.0617C4.71598 22.2474 4.9279 22.3965 5.16258 22.5003C5.39726 22.6041 5.65009 22.6606 5.90663 22.6667H18.06C18.3193 22.665 18.5758 22.6116 18.8143 22.5098C19.0528 22.4079 19.2687 22.2596 19.4493 22.0734C19.6299 21.8872 19.7716 21.667 19.8661 21.4254C19.9607 21.1839 20.0062 20.926 20 20.6667V6H3.99996ZM9.99996 19.3333H8.66663V9.33333H9.99996V19.3333ZM15.3333 19.3333H14V9.33333H15.3333V19.3333Z" fill="#262522"/>
<path d="M20.4866 3.33325H15.3333V2.66659C15.3333 2.31296 15.1928 1.97382 14.9428 1.72378C14.6927 1.47373 14.3536 1.33325 14 1.33325H9.86663C9.5366 1.36642 9.23078 1.5214 9.00888 1.76795C8.78699 2.0145 8.66496 2.3349 8.66663 2.66659V3.33325H3.33329C3.15648 3.33325 2.98691 3.40349 2.86189 3.52851C2.73686 3.65354 2.66663 3.82311 2.66663 3.99992C2.66663 4.17673 2.73686 4.3463 2.86189 4.47132C2.98691 4.59635 3.15648 4.66659 3.33329 4.66659H20.4866C20.6634 4.66659 20.833 4.59635 20.958 4.47132C21.0831 4.3463 21.1533 4.17673 21.1533 3.99992C21.1533 3.82311 21.0831 3.65354 20.958 3.52851C20.833 3.40349 20.6634 3.33325 20.4866 3.33325Z" fill="#262522"/>
</svg>
