<svg width="24" height="24" viewBox="0 0 24 24" fill="none" xmlns="http://www.w3.org/2000/svg">
<g clip-path="url(#clip0_2_23)">
<path opacity="0.2" d="M24 12.9229C24 19.0401 19.0403 23.9998 12.9231 23.9998C6.80588 23.9998 1.84619 19.0401 1.84619 12.9229C1.84619 6.80564 6.80588 1.84595 12.9231 1.84595C19.0403 1.84595 24 6.80564 24 12.9229Z" fill="#F0EBE1"/>
<path fill-rule="evenodd" clip-rule="evenodd" d="M6.1579 19.5728C5.17944 19.4528 4.61267 18.9894 4.61267 18.1143C4.61267 16.2986 6.5059 15.9303 11.3456 15.9201H12.6481C17.4877 15.9294 19.3819 16.2986 19.3819 18.1143C19.3819 18.9894 18.8142 19.4528 17.8357 19.5728C17.197 19.6521 16.801 19.6328 14.7942 19.4758C13.6099 19.3826 12.8391 19.3411 11.9973 19.3411C11.1554 19.3411 10.3837 19.3826 9.20036 19.4758C7.19359 19.6328 6.79667 19.6512 6.1579 19.5728ZM11.3474 16.8432C7.26744 16.8515 5.53575 17.1894 5.53575 18.1143C5.53575 18.4475 5.70652 18.5869 6.27144 18.6571C6.8179 18.7244 7.2139 18.7051 9.12836 18.5555C10.3339 18.4604 11.125 18.418 11.9973 18.418C12.8687 18.418 13.6597 18.4604 14.8662 18.5555C16.7797 18.7051 17.1767 18.7244 17.7231 18.6571C18.2871 18.5869 18.4588 18.4475 18.4588 18.1143C18.4588 17.1894 16.7262 16.8515 12.6462 16.8432H11.9677H11.3474ZM17.5967 10.2183C18.7524 9.95798 19.3847 9.30167 19.3847 8.18198C19.3847 5.64352 16.1511 3.92383 12.0001 3.92383C7.84898 3.92383 4.61544 5.64352 4.61544 8.18106C4.61544 9.30075 5.24775 9.95706 6.40344 10.2192C7.20744 10.4011 7.9339 10.4131 10.1281 10.3503C10.7518 10.3294 11.3759 10.318 12.0001 10.3161C12.5447 10.3161 13.0191 10.3254 13.8721 10.3503C16.0662 10.4131 16.7927 10.4011 17.5967 10.2192M12.0001 4.84598C15.709 4.84598 18.4616 6.3109 18.4616 8.18106C18.4616 8.82998 18.1579 9.14475 17.3927 9.31829C16.6985 9.47521 15.9951 9.48721 13.8988 9.42721C13.2661 9.40614 12.6331 9.39475 12.0001 9.39306C11.4444 9.39306 10.9634 9.40229 10.1013 9.42721C8.00498 9.48721 7.30159 9.47614 6.60744 9.31829C5.84129 9.14475 5.53852 8.82998 5.53852 8.18106C5.53852 6.3109 8.29113 4.84598 12.0001 4.84598Z" fill="#F0EBE1"/>
<path d="M5.07879 12.3987C4.97303 12.4604 4.8471 12.4776 4.72869 12.4464C4.61028 12.4153 4.5091 12.3383 4.44741 12.2326C4.38572 12.1268 4.36856 12.0009 4.39972 11.8825C4.43088 11.7641 4.5078 11.6629 4.61356 11.6012C5.1954 11.2568 5.85931 11.0757 6.53541 11.0769C6.98403 11.0769 7.24249 11.1517 7.6551 11.3464L7.66618 11.352C7.97449 11.4969 8.11756 11.5384 8.4231 11.5384C8.72495 11.5384 8.85326 11.4997 9.12833 11.3584L9.13941 11.3529C9.5271 11.1544 9.78095 11.0769 10.2333 11.0769C10.692 11.0769 10.9459 11.1563 11.3345 11.3603C11.604 11.5024 11.7203 11.5384 12 11.5384C12.2797 11.5384 12.3951 11.5015 12.66 11.363L12.6637 11.3603C13.0523 11.1572 13.3071 11.0769 13.7668 11.0769C14.2209 11.0769 14.4757 11.1544 14.8708 11.3547L14.8754 11.3575C15.156 11.4997 15.2816 11.5384 15.5769 11.5384C15.8723 11.5384 16.0016 11.4997 16.2859 11.3566L16.2914 11.3538C16.6902 11.1535 16.9449 11.0769 17.3982 11.0769C18.072 11.0769 18.7311 11.2504 19.3717 11.5938C19.4727 11.6551 19.5464 11.7528 19.5775 11.8668C19.6087 11.9808 19.5949 12.1024 19.539 12.2065C19.4832 12.3107 19.3895 12.3894 19.2773 12.4266C19.1651 12.4637 19.043 12.4564 18.936 12.4061C18.4265 12.1347 17.916 12 17.3982 12C17.112 12 16.9874 12.0378 16.7059 12.179L16.7003 12.1818C16.2979 12.384 16.0394 12.4615 15.5769 12.4615C15.1145 12.4615 14.8569 12.383 14.4582 12.1809L14.4526 12.1781C14.1757 12.0378 14.0529 12 13.7668 12C13.4806 12 13.3606 12.0369 13.0939 12.1781L13.0893 12.18C12.7043 12.383 12.4523 12.4615 12 12.4615C11.5477 12.4615 11.2957 12.383 10.9089 12.18L10.9053 12.1781C10.6376 12.0369 10.5194 12 10.2333 12C9.94987 12 9.82895 12.0369 9.56033 12.1744L9.54926 12.18C9.15418 12.383 8.89203 12.4615 8.4231 12.4615C7.95787 12.4615 7.69295 12.3849 7.27203 12.1864L7.26095 12.1809C6.96095 12.0397 6.82433 12 6.53541 12C6.01849 12 5.53664 12.132 5.07879 12.3987ZM5.53849 14.7692C5.41608 14.7692 5.29869 14.7206 5.21213 14.634C5.12558 14.5475 5.07695 14.4301 5.07695 14.3077C5.07695 14.1853 5.12558 14.0679 5.21213 13.9813C5.29869 13.8947 5.41608 13.8461 5.53849 13.8461H18.4616C18.584 13.8461 18.7014 13.8947 18.7879 13.9813C18.8745 14.0679 18.9231 14.1853 18.9231 14.3077C18.9231 14.4301 18.8745 14.5475 18.7879 14.634C18.7014 14.7206 18.584 14.7692 18.4616 14.7692H5.53849ZM8.40003 7.61535C8.40003 7.76224 8.34167 7.90311 8.23781 8.00698C8.13394 8.11085 7.99307 8.1692 7.84618 8.1692C7.69929 8.1692 7.55842 8.11085 7.45455 8.00698C7.35068 7.90311 7.29233 7.76224 7.29233 7.61535C7.29233 7.46846 7.35068 7.32759 7.45455 7.22372C7.55842 7.11986 7.69929 7.0615 7.84618 7.0615C7.99307 7.0615 8.13394 7.11986 8.23781 7.22372C8.34167 7.32759 8.40003 7.46846 8.40003 7.61535ZM10.7077 6.69227C10.7077 6.76501 10.6934 6.83703 10.6656 6.90422C10.6377 6.97142 10.5969 7.03247 10.5455 7.0839C10.4941 7.13533 10.433 7.17613 10.3658 7.20396C10.2986 7.23179 10.2266 7.24612 10.1539 7.24612C10.0811 7.24612 10.0091 7.23179 9.94192 7.20396C9.87473 7.17613 9.81367 7.13533 9.76224 7.0839C9.71081 7.03247 9.67002 6.97142 9.64218 6.90422C9.61435 6.83703 9.60003 6.76501 9.60003 6.69227C9.60003 6.54538 9.65838 6.40451 9.76224 6.30065C9.86611 6.19678 10.007 6.13843 10.1539 6.13843C10.3008 6.13843 10.4416 6.19678 10.5455 6.30065C10.6494 6.40451 10.7077 6.54538 10.7077 6.69227ZM12.5539 8.07689C12.5539 8.22378 12.4955 8.36465 12.3917 8.46852C12.2878 8.57238 12.1469 8.63074 12 8.63074C11.8531 8.63074 11.7123 8.57238 11.6084 8.46852C11.5045 8.36465 11.4462 8.22378 11.4462 8.07689C11.4462 7.93 11.5045 7.78913 11.6084 7.68526C11.7123 7.58139 11.8531 7.52304 12 7.52304C12.1469 7.52304 12.2878 7.58139 12.3917 7.68526C12.4955 7.78913 12.5539 7.93 12.5539 8.07689ZM14.4 6.69227C14.4 6.83916 14.3417 6.98004 14.2378 7.0839C14.1339 7.18777 13.9931 7.24612 13.8462 7.24612C13.6993 7.24612 13.5584 7.18777 13.4546 7.0839C13.3507 6.98004 13.2923 6.83916 13.2923 6.69227C13.2923 6.54538 13.3507 6.40451 13.4546 6.30065C13.5584 6.19678 13.6993 6.13843 13.8462 6.13843C13.9931 6.13843 14.1339 6.19678 14.2378 6.30065C14.3417 6.40451 14.4 6.54538 14.4 6.69227ZM16.7077 7.61535C16.7077 7.76224 16.6494 7.90311 16.5455 8.00698C16.4416 8.11085 16.3008 8.1692 16.1539 8.1692C16.007 8.1692 15.8661 8.11085 15.7622 8.00698C15.6584 7.90311 15.6 7.76224 15.6 7.61535C15.6 7.46846 15.6584 7.32759 15.7622 7.22372C15.8661 7.11986 16.007 7.0615 16.1539 7.0615C16.3008 7.0615 16.4416 7.11986 16.5455 7.22372C16.6494 7.32759 16.7077 7.46846 16.7077 7.61535Z" fill="#F0EBE1"/>
<path fill-rule="evenodd" clip-rule="evenodd" d="M12 22.6153C17.8625 22.6153 22.6154 17.8623 22.6154 11.9999C22.6154 6.13743 17.8625 1.3845 12 1.3845C6.13755 1.3845 1.38462 6.13743 1.38462 11.9999C1.38462 17.8623 6.13755 22.6153 12 22.6153ZM12 23.5383C18.3729 23.5383 23.5385 18.3728 23.5385 11.9999C23.5385 5.62696 18.3729 0.461426 12 0.461426C5.62709 0.461426 0.461548 5.62696 0.461548 11.9999C0.461548 18.3728 5.62709 23.5383 12 23.5383Z" fill="#F0EBE1"/>
</g>
<defs>
<clipPath id="clip0_2_23">
<rect width="24" height="24" fill="white"/>
</clipPath>
</defs>
</svg>
